<svg width="24" height="25" viewBox="0 0 24 25" fill="none" xmlns="http://www.w3.org/2000/svg">
<g id="ChartPieSlice-d">
<path id="Vector" d="M3.14993 14.4308C3.04767 13.8869 2.99741 13.3344 2.99997 12.7808C2.99878 10.9195 3.57529 9.1037 4.65002 7.58401C5.72476 6.06424 7.24463 4.91562 8.99997 4.29645V11.0464L3.14993 14.4308Z" fill="#F6F6F6"/>
<path id="Vector_2" d="M12.75 12.7808V3.78082C12.75 3.36661 12.4142 3.03082 12 3.03082C11.5858 3.03082 11.25 3.36661 11.25 3.78082V12.7808C11.25 13.195 11.5858 13.5308 12 13.5308C12.4142 13.5308 12.75 13.195 12.75 12.7808Z" fill="#F6F6F6"/>
<path id="Vector_3" d="M3.83479 16.6311L3.83422 16.6314C3.66198 16.7309 3.53631 16.8947 3.48487 17.0869C3.46793 17.1501 3.45935 17.2153 3.45935 17.2808C3.45935 17.2888 3.45948 17.2967 3.45973 17.3046C3.46365 17.4282 3.49806 17.5489 3.55991 17.656C3.6939 17.8879 3.94146 18.0308 4.20935 18.0308C4.221 18.0308 4.23265 18.0306 4.24429 18.03C4.36403 18.0244 4.48068 17.9902 4.58448 17.9303L4.58504 17.9299L20.1657 8.93027C20.3977 8.79627 20.5406 8.54872 20.5406 8.28082C20.5406 8.26917 20.5403 8.25752 20.5398 8.24589C20.5342 8.12615 20.5 8.00949 20.44 7.90569C20.3406 7.73345 20.1767 7.60778 19.9846 7.55634C19.9213 7.5394 19.8561 7.53082 19.7906 7.53082C19.7827 7.53082 19.7747 7.53095 19.7668 7.5312C19.6432 7.53512 19.5225 7.56954 19.4155 7.63138L3.83479 16.6311Z" fill="#F6F6F6"/>
<path id="Vector_4" fill-rule="evenodd" clip-rule="evenodd" d="M9.37552 11.6956L3.52552 15.08C3.35334 15.1796 3.14865 15.2068 2.95647 15.1554C2.76429 15.1041 2.60037 14.9786 2.50076 14.8064C2.45827 14.733 2.42855 14.6528 2.41287 14.5695C2.41287 14.5695 2.2458 13.6812 2.24995 12.7774C2.24995 12.7774 2.24797 9.68168 4.03767 7.15094C4.03767 7.15094 5.82736 4.62021 8.75047 3.58916C8.93805 3.52299 9.14424 3.53405 9.32367 3.61991C9.5031 3.70577 9.64107 3.85938 9.70724 4.04697C9.7355 4.12711 9.74995 4.21147 9.74995 4.29645V11.0464C9.74995 11.3142 9.60725 11.5616 9.37552 11.6956ZM3.7594 13.2118L8.24995 10.6139V5.42761C8.24995 5.42761 6.45746 6.3271 5.26237 8.01703C5.26237 8.01703 3.74828 10.1581 3.74994 12.7843C3.74994 12.7843 3.74895 12.9985 3.7594 13.2118Z" fill="#F6F6F6"/>
<path id="Vector_5" d="M7.91922 19.9514C6.00139 18.8603 4.88434 16.9574 4.88434 16.9574C4.78364 16.7858 4.61892 16.6613 4.42642 16.6112C4.36475 16.5952 4.30128 16.5871 4.23755 16.5871C4.22786 16.5871 4.21817 16.5873 4.20849 16.5876C4.08494 16.5924 3.96449 16.6277 3.85786 16.6903C3.62846 16.825 3.48755 17.0711 3.48755 17.3371L3.48755 17.3392C3.48793 17.472 3.52355 17.6023 3.59076 17.7168C4.91091 19.9656 7.17744 21.2552 7.17744 21.2552C9.44397 22.5448 12.0516 22.5307 12.0516 22.5307C14.6593 22.5166 16.9118 21.2027 16.9118 21.2027C19.1643 19.8887 20.4601 17.6257 20.4601 17.6257C21.7559 15.3628 21.749 12.7551 21.749 12.7551C21.7421 10.1474 20.4344 7.89128 20.4344 7.89128C19.1266 5.63519 16.8672 4.33315 16.8672 4.33315C14.6078 3.03112 12.0001 3.03082 12.0001 3.03082C11.9543 3.03082 11.9086 3.03501 11.8637 3.04333C11.5081 3.10908 11.2501 3.41916 11.25 3.78074C11.25 3.79278 11.2503 3.80479 11.2509 3.81677C11.2598 4.003 11.3378 4.17923 11.4697 4.31109C11.6103 4.45176 11.8011 4.5308 12 4.53082H12.0003C14.2066 4.53116 16.1183 5.63279 16.1183 5.63279C18.0301 6.73452 19.1366 8.64352 19.1366 8.64352C20.2432 10.5525 20.249 12.759 20.249 12.759C20.2548 14.9655 19.1584 16.8804 19.1584 16.8804C18.0619 18.7952 16.156 19.907 16.156 19.907C14.25 21.0188 12.0435 21.0307 12.0435 21.0307C9.83705 21.0426 7.91922 19.9514 7.91922 19.9514Z" fill="#F6F6F6"/>
</g>
</svg>
