<svg width="19" height="5" viewBox="0 0 19 5" fill="none" xmlns="http://www.w3.org/2000/svg">
<path d="M0.0278114 2.90583C0.0431052 4.00573 0.955531 4.89313 2.05542 4.87783C3.15532 4.86254 4.04272 3.95011 4.02742 2.85022C4.01213 1.75033 3.0997 0.862926 1.99981 0.878219C0.899917 0.893513 0.0125176 1.80594 0.0278114 2.90583ZM14.0265 2.71118C14.0418 3.81108 14.9542 4.69848 16.0541 4.68318C17.154 4.66789 18.0414 3.75546 18.0261 2.65557C18.0108 1.55568 17.0984 0.668277 15.9985 0.683571C14.8986 0.698865 14.0112 1.61129 14.0265 2.71118ZM7.02713 2.80851C7.04243 3.9084 7.95485 4.7958 9.05475 4.78051C10.1546 4.76521 11.042 3.85279 11.0267 2.7529C11.0115 1.653 10.099 0.765601 8.99913 0.780895C7.89924 0.796189 7.01184 1.70862 7.02713 2.80851Z" fill="#6B7A99"/>
</svg>
